<?xml version="1.0" encoding="UTF-8" standalone="no"?>

<svg
   width="512"
   height="512"
   viewBox="0 0 512 512"
   version="1.1"
   id="svg1"
   xml:space="preserve"
   xmlns="http://www.w3.org/2000/svg"
   xmlns:svg="http://www.w3.org/2000/svg"><defs
     id="defs1" /><g
     id="layer1"><rect
       style="opacity:1;fill:#78a9ff;fill-opacity:1"
       id="rect1"
       width="488"
       height="488"
       x="12"
       y="12"
       rx="48"
       ry="48" /><g
       style="fill:#1f1f1f"
       id="g1"
       transform="matrix(0.3994,0,0,0.3994,64.288,447.9117)"><path
         d="M 480,-80 Q 397,-80 324,-111.5 251,-143 197,-197 143,-251 111.5,-324 80,-397 80,-480 q 0,-75 29,-147 29,-72 81,-128.5 52,-56.5 125,-91 73,-34.5 160,-34.5 21,0 43,2 22,2 45,7 -9,45 6,85 15,40 45,66.5 30,26.5 71.5,36.5 41.5,10 85.5,-5 -26,59 7.5,113 33.5,54 99.5,56 1,11 1.5,20.5 0.5,9.5 0.5,20.5 0,82 -31.5,154.5 -31.5,72.5 -85.5,127 -54,54.5 -127,86 Q 563,-80 480,-80 Z m -60,-480 q 25,0 42.5,-17.5 Q 480,-595 480,-620 480,-645 462.5,-662.5 445,-680 420,-680 q -25,0 -42.5,17.5 -17.5,17.5 -17.5,42.5 0,25 17.5,42.5 17.5,17.5 42.5,17.5 z m -80,200 q 25,0 42.5,-17.5 Q 400,-395 400,-420 400,-445 382.5,-462.5 365,-480 340,-480 q -25,0 -42.5,17.5 -17.5,17.5 -17.5,42.5 0,25 17.5,42.5 17.5,17.5 42.5,17.5 z m 260,40 q 17,0 28.5,-11.5 Q 640,-343 640,-360 640,-377 628.5,-388.5 617,-400 600,-400 q -17,0 -28.5,11.5 -11.5,11.5 -11.5,28.5 0,17 11.5,28.5 11.5,11.5 28.5,11.5 z m -120,160 q 122,0 216.5,-84 94.5,-84 103.5,-214 -50,-22 -78.5,-60 -28.5,-38 -38.5,-85 -77,-11 -132,-66 -55,-55 -68,-132 -80,-2 -140.5,29 -60.5,31 -101,79.5 -40.5,48.5 -61,105.5 -20.5,57 -20.5,107 0,133 93.5,226.5 Q 347,-160 480,-160 Z m 0,-324 z"
         id="path1" /></g></g></svg>
